<?xml version="1.0" encoding="UTF-8"?>
<svg version="1.1" viewBox="0 0 830 830" width="54" height="54" xmlns="http://www.w3.org/2000/svg">
<path transform="translate(416,2)" d="m0 0 5 1 11 6 15 8 8 5 24 14 6 4 14 7 9 6 14 9 16 8 21 11 22 12 16 10 16 9 9 6 11 7 6 4 10 5 13 9 18 10 10 7 9 5 11 7 10 7 12 6 10 7 16 9 23 13 5 7 2 16v377l-3 6-5 4-27 15-42 24-22 13-19 11-16 9-17 10-21 12-19 11-20 12-18 10-26 15-15 9-23 13-18 10-24 14-28 15-4 2-7-1-45-25-50-28-17-10-23-13-8-4-2-3-23-11-29-16-21-12-18-10-56-32-18-10-21-12-25-14-13-8-2-2-1-386 2-15 8-5 21-11 16-8 11-7 17-9 13-8 19-11 15-8 17-10 18-10 20-11 19-12 11-6 23-13 21-12 10-7 25-15 14-8 15-10 14-8 15-8 10-6 15-8z" fill="#65128D"/>
<path transform="translate(416,73)" d="m0 0h5l20 12 25 14 17 10 35 20 6 3 25 15 12 6 9 6 8 4 15 9 6 3 10 6 19 11 11 6 3 3 16 8 14 9 14 8 10 5 8 5 5 2v2l5 2 16 9 3 2v2h2v328l-3 3-22 12-13 8-23 13-8 5-9 5-15 8-5 3-27 15-15 9-25 14-7 5-16 8-20 12-25 13-17 10-18 10-6 4-16 8-23 13-4 1-21-12-2-1v-2l-6-2-24-14-27-16-10-6-7-4h-4l11 8 5 3 3 4-2 4-10 9-1 2h-2l-1 3-9 6-3 1-2 4-3 3-5 3-2 2 1 3 4 1-4 1-18-10-8-4-2-3-16-8v-4l19-10 5-1v-2l13-7h3v-2l24-13 15-9 11-6 29-16 11-7 13-8 26-15 24-14 22-13 26-15 39-23 29-17 25-15 8-5 11-6 22-13 16-10 9-5 8-5 1-215-4-1-2-2-5-2-11-7-11-6-14-8v-2l-4-1-12-6-23-14v-2l-5-1-21-12-3-2v-2l-5-1-26-15-13-8-22-13-7-4-5 1-27 15-46 26-17 10-16 9-10 6h-3v2l-12 6-5 2v2l-7 2-1 3-7 3-10 6-11 6-21 12-26 15-23 13-10 6-23 13-13 8h-2l1 149v67l5 2 14 8 24 15 20 12 8 4 27-18 21-13 1-15-29-17-18-11-11-7v-140l10-7 29-16 42-24 10-6 9-6 7-3 7-4 7-5 16-8 3-3 14-7 24-14 11-7 11-6 25-15 6 1 21 12 4 2v2l-35 20-11 7-10 5h-2v2l-6 3-11 6-26 15-6 4-11 6-19 11-18 10-17 10-25 14-19 11h-2v22l5 2 19 12 18 11 6-2 42-24 24-14 5-4 6-3 13-7 9-6 14-7 8-5 17-10 21-12 9-6 11-6 21-12 10-6 17-10 3-2 6 1 16 9 22 13 1 1v141l-13 8h-4l-2-13v-16l1-21 1-11v-42l-1-2v-10l-3-8v-3h-2l-5-5-11-5-9 1-6 1v2l-9 3-10 4-3 3-7 4-6 3h-2v2l-13 9-5 2-12 7-1 2h-3l-2 4-10 5-4 4-3 2h-3v2l-7 3-5 5-5 2-1 4-4 3h-3v2l-8 4-2 3-7 1-1 4-8 5-9 9-1 12 1 11 2 6 2-1 1 5 5 2 30 18 27 16 5-2 24-14 15-9 21-12 9-5 5-4 11-5h2l1 2 2 19v5h7l-4 4-7 4h-2v2l-6 3-22 12-15 9-19 11-21 12-24 14-18 10-20 12-26 15-21 12-25 14-12 7h-2v2l-6 3-6 2-12 6-5 3-9 6h-3l-4 4-14 7-6 4h-2v2l-3 2h-7l-17-10-19-10-16-10-10-5v-2l-5-1-15-9-16-9-10-6-9-5v-2l-9-3-10-7-2-1-1-327 5-4 18-10 7-4 5-3 7-5 6-2 16-9 17-10 9-6 5-3h3v-2l9-5 4-3h4v-2l10-5 5-4 24-14 15-9 26-15 24-14 14-8 17-10 29-17 26-15z" fill="#2E3260"/>
<path transform="translate(471,171)" d="m0 0 5 1 15 9 17 10 22 13 14 8 3 1v2l5 2 15 9 9 4 3 3 24 14 12 6 3 3 18 10 15 9 6 3 5 3v215l-14 9-7 4-20 12-17 10-12 7-5 3-49 29-29 17-24 14-26 15-15 9-24 14-26 15-13 8-1-2-4 1-4-2v-2l-7-1-2-1v-2l-5-1-7-4-7-3-9-5-14-7v-2l-6-1 5-5 2-1-1-2 27-15 23-13 24-14 26-15 15-9 18-10 38-22 17-10 26-15 11-6 3-2h3v-2l12-7-6-1-3-24v-2l-14 7-5 4-12 6-13 8-11 6-22 13-13 8-6-2-20-12-28-17-10-6-1-3-2 1-3-8-1-15 1-8 5-5h2l2-4 5-4 4-2 1-3 7-2 4-4 3-2h3v-2l6-3 2-4 8-5 4-4 5-1v-2l8-4 5-5 7-3 2-3h3l1-3 10-6 7-3 11-8h2v-2l10-5 5-3h2l1-3 11-5 8-1v-2l9-3h6l11 5 5 4v2h2l4 11v11l1 1v44l-1 9-1 26v12l1 12 7-3 9-5v-141l-17-10-21-12-6-1-23 14-11 6-17 10-14 8-16 10-11 6-20 12-9 5-11 6-13 8-8 4-8 5-24 14-19 11-25 14-5 3-5-2-25-15-14-9v-22l25-14 23-13 24-14 11-6 22-13 11-6 22-13 16-9 3-2h3v-2l17-9 6-4 11-6 17-10 5-3h2v-2l-4-1-23-13-6 1-21 13-10 6-11 6-24 14-14 8-5 3-21 12-12 7-6 3-10 6-17 10-25 14-42 24-4 3v140l17 10 25 15 16 10-1 15-22 14-27 18-12-6-16-10-26-16-17-10-1-68v-148l19-11 23-13 15-9 23-13 21-12 22-13 18-10 5-2 4-4h4v-2l14-8h3v-2l12-6 10-6 19-11 14-8 18-10 21-12z" fill="#C0B4E8"/>
<path transform="translate(413,106)" d="m0 0 10 1 8 3v2l8 1 8 4 8 5 12 6 5 3 5 2 8 5 14 8 6 3 3 2v2l4 2 8 3 2 2 6 2v2l5 1 5 4 8 3 8 5h2l3 3 8 4v2l4 2 8 3 5 3 4 4 5 2 4 4 6 3h5 2l2-1 9 5 13 8 4 2v2l16 8 10 6 10 7 7 4 12 7v2l5 1 4 2v2l5 2 2 1v2l4 1 7 8 4 11 1 20 1 2v49l-1 1v34l1 4v10l-1 2-1 20v68l-1 12-1 33-1 11 1 8 1 26h3v2l-24 14-21 12-13 8-11 6-15 8-5 3-27 15-15 9-25 14-7 5-16 8-20 12-25 13-17 10-18 10-6 4-16 8-23 13-4 1-21-12-2-1v-2l-6-2-24-14-27-16-10-6-7-4h-4l11 8 5 3 3 4-2 4-10 9-1 2h-2l-1 3-9 6-3 1-2 4-3 3-5 3-2 2 1 3 4 1-4 1-18-10-8-4-2-3-16-8v-4l19-10 5-1v-2l13-7h3v-2l24-13 15-9 11-6 29-16 11-7 13-8 26-15 24-14 22-13 26-15 39-23 29-17 25-15 8-5 11-6 22-13 16-10 9-5 8-5 1-215-4-1-2-2-5-2-11-7-11-6-14-8v-2l-4-1-12-6-23-14v-2l-5-1-21-12-3-2v-2l-5-1-26-15-13-8-22-13-7-4-5 1-27 15-46 26-17 10-16 9-10 6h-3v2l-12 6-5 2v2l-7 2-1 3-7 3-10 6-11 6-17 10-7-1-7-3 1-10-1-3 2-6-1-11-3-1h2v-3l-5 2v-4l-1-6v-18h2l2-6 6-4h2l2-6 4-2 1-2h2v-2l10-6 5-5-5 1-1 3-3-1 1-5 5-1v-2h3v-2l5-3 6-5 6-3 9-9 8-1v-2h2l2-4 3-3 7-3 2-2 5-2 10-7 6-3 7-6 18-9 3-3 7-3z" fill="#2E3260"/>
<path transform="translate(113,241)" d="m0 0 7 1 1 1 4 1-9 6-9 5-1 5v323l5 2 11 7 5 2v2l5 2 13 7 13 8 18 10 6 3v2l6 2 22 13 17 9 17 10h7l3-1v-2l10-6 14-7 2-3 4-1 9-6 16-8 12-5 2 1-7 5 5 2v2l6 2 8 4 11 6 14 7 3 1v2l9 2v2l8 1-1 4-11 6-25 14-21 12-23 13-6 2v2l-14 7h-2v2l-7 3-17 9-1 2-6-2-29-16-21-12-18-10-56-32-18-10-21-12-25-14-13-8-1-1v-350h1l1 6 2-4h1l2-6 8-4 7-8 7-3 6-2v-2l8-3 12-1h13z" fill="#D90082"/>
<path transform="translate(406,111)" d="m0 0h17l14 8 5 3 6 2 7 4 10 5 13 8 8 5 8 4 10 6 3 1v2l6 2 2 1v2l7 1 8 5 2 1v2l5 2 2 2 6 2 4 3v2l6 2 4 3 7 3 7 5 10 4 6 5 6 3 12 7 9 6 5 3 9 6 6 3 9 5v2h3v2l6 2 8 6 4 1v2l4 1v2l4 1 10 5 1 4 9 3 7 5 3 3 5 4 4 9 1 4 1 20v35l-1 9v59l-1 7v10l-2 9v11l-2 31h-2l-2 4-2 15-2 7-3 6v6l-3 4-1 7-4 9-2 6-3-2v-2h-8l-2 7h-5l-4-6 1-5v-11l-3-9v-8l2-10-3-1-1-8v-214l-4-1-2-2-5-2-11-7-11-6-14-8v-2l-4-1-12-6-23-14v-2l-5-1-21-12-3-2v-2l-5-1-26-15-13-8-22-13-7-4-5 1-27 15-46 26-17 10-16 9-10 6h-3v2l-12 6-5 2v2l-7 2-1 3-7 3-10 6-11 6-17 10-7-1-7-3 1-10-1-3 2-6-1-11-3-1h2v-3l-5 2v-4l-1-6v-18h2l2-6 6-4h2l2-6 4-2 1-2h2v-2l10-6 5-5 6-4 11-8 9-4 1-2h2l1-3 10-5 10-7 13-8 3-3 5-3 20-13 6-4 10-6h3z" fill="#1A3F81"/>
<path transform="translate(558,331)" d="m0 0h6l11 5 5 4v2h2l4 11v11l1 1v44l-1 9-1 26v12l1 12 3 1-12 6-7 5-3 1-1 2 2 1-13 8-12 7h-2v2l-6 3-3 4v6l1 3-2 5-6 1 2 3 7 2 2 2v3h3l-3-7 3 1 3 5 4 2h1l2-1 11 8v2l17-1 4 2-4 3-68 40-24 14-26 15-15 9-24 14-26 15-13 8-1-2-4 1-4-2v-2l-7-1-2-1v-2l-5-1-7-4-7-3-9-5-14-7v-2l-6-1 5-5 2-1-1-2 27-15 23-13 24-14 26-15 15-9 18-10 38-22 17-10 26-15 11-6 3-2h3v-2l12-7-6-1-3-24v-2l-14 7-5 4-12 6-13 8-11 6-22 13-13 8-6-2-20-12-28-17-10-6-1-3-2 1-3-8-1-15 1-8 5-5h2l2-4 5-4 4-2 1-3 7-2 4-4 3-2h3v-2l6-3 2-4 8-5 4-4 5-1v-2l8-4 5-5 7-3 2-3h3l1-3 10-6 7-3 11-8h2v-2l10-5 5-3h2l1-3 11-5 8-1v-2z" fill="#1A3F80"/>
<path transform="translate(416,2)" d="m0 0 5 1 11 6 15 8 8 5 24 14 6 4 14 7 9 6 14 9 16 8 21 11 9 5-3 1-3-1-6 4-7 7-11 9-6 8-5 2-1 2h-2l-1 5-3 5-4 1-12-7-49-28-23-13-11-7h-5l-15 9-26 15-22 13-17 10-24 14-21 12-41 24-18 11-9 6h-3v2l-7 3-7 5h-3v2l-11 6-13 8-24 14-3 2-6 2-8 6-9 4-4 2-6 1v-2l-6-1-3 1h-11l-13 1-7 2v2l-9 5h-4l-2 4-6 6-7 3-1 7-2-1-1 4-2 2-1 340h-1l-1-386 2-15 8-5 21-11 16-8 11-7 17-9 13-8 19-11 15-8 17-10 18-10 20-11 19-12 11-6 23-13 21-12 10-7 25-15 14-8 15-10 14-8 15-8 10-6 15-8z" fill="#2474DE"/>
<path transform="translate(305,265)" d="m0 0 4 2-7 5-2 4-4 1-1 8 3 2 2 5 10 20-1 4h3v-2h2l1 2 3 1 2 3 8 2-3 5-20 11-24 14-24 13-14 9v140l17 10 25 15 16 10-1 15-22 14-27 18-12-6-16-10-26-16-17-10-1-68v-148l19-11 23-13 15-9 23-13 21-12 22-13z" fill="#7169AC"/>
<path transform="translate(562,85)" d="m0 0 10 3 17 10 10 6 14 8 9 6 11 7 6 4 10 5 13 9 18 10 10 7 9 5 11 7 10 7 12 6 10 7 16 9 23 13 5 7 2 16v108l-1 36h-1l-1-6-9 4-3 3-9 2-9 1-4 6-2 2h-6l-2 13h-1v-5h-2v7h-1l-1-7v-147l-4-1-11-6-12-7v-2l-7-2-9-6-7-3-10-6-9-5-5-4-14-7-8-5-9-6-12-6-13-8-10-6-10-5-13-8-11-6-10-6-11-6-12-7-6-4-5-2 4-7 2-5h2l1-3 5-1 2-4 7-8 11-9 8-7z" fill="#FD33C3"/>
<path transform="translate(416,73)" d="m0 0h5l20 12 25 14 17 10 35 20 6 3 25 15 12 6 9 6 8 4 15 9 6 3 10 6 19 11 11 6 3 3 16 8 14 9 14 8 10 5 8 5 5 2v2l5 2 16 9 3 2v2h2v328l-3 3-6 2-3-1-1-2-1-25-1-8 1-17 1-26 1-21v-60l1-19 1-7v-7l-1-2v-34l1-4v-46l-1-2-1-21-4-10-1-3-4-2-2-3-3-1v-2l-5-2-2-1v-2l-9-3v-2l-5-2-20-12-7-5-7-4-13-7-3-2v-2l-6-2-11-7-10-6-9-6-12-5-12-8v-2l-11-3-1-3-6-2-11-7-5-3-9-4-3-1-5-5-22-11-3-4v-2l-7-1-5-3v-2l-9-3-6-5-5-1v-2l-7-2-13-8-19-9-7-2-12-1-8 3-10 2v2l-10 5h-2v2l-6 3h-2v2l-7 4-9 5-4 4-14 8-9 5-5 5-8 3-4 1v2l-7 4-4 5-10 5-3 1-4 4-7 2v2l-4 2-1 2-3 1-5 5-14 8h-2l-1 2-10 5-7 4h-2l-2 4-4 1v2l-13 8-10 7-5 3-9 7-7 4-8 5-4 4-12 7-11 7-8 6h-2l-2 4-16 11-6 7-1 6v13l3 9 2 8v34l-2 4-1 21-2 4v48l1 5-1 12v36l1 16-1 4 1 2v39h2l2 3 1 15h-2l-1 5-1 2-6 1-1-327 5-4 18-10 7-4 5-3 7-5 6-2 16-9 17-10 9-6 5-3h3v-2l9-5 4-3h4v-2l10-5 5-4 24-14 15-9 26-15 24-14 14-8 17-10 29-17 26-15z" fill="#1E1D3B"/>
<path transform="translate(733,254)" d="m0 0h3l1 147h3l1 2 1-11h6l4-4 3-4 9-1 2-1h7l1-3 9-4h2v-9h1l1-17h1v265h-1l-1-35-1-5-18 6h-3l-2 4-5 4-1 2h-2v2l-7 2-1 2-6 2-6 1-1 4-2 1-4 7-6 6-8-1-5 6-5 2-1 4-5 3h-2l-1 5-7 4-2-1v2l-10 3-2 4-3 2h-7v2l3-1v3l-2 1-3-1v2l-5 5 2 3h-3v4h-5l-1 3-10 3-6 3 1 3-2 1 2 2-3 2-6-1-1-3-12 4v2l-10 4-9 3-6-1v2l-7 3-10 1-10 4-17 2-1 6-5 3-15-1h-4l-5 2-1 2-8 3-19 10-10 6-15 8-9 5-11 7-15 8-7 2-7-3v-2l-5-1v-2h-3v-2l-5-1v-2l-5-2-10-5v-2l-9-3-23-14-9-5v-2h6l24 14 23 13v2l6 2 17 10 6-2 27-15 15-8 8-5 27-15 33-18 15-9 15-8 15-9 18-10 17-10 27-15 10-6 6-3 16-9 17-10 14-8 17-10 11-6h2l1-330z" fill="#76149D"/>
<path transform="translate(251,101)" d="m0 0 10 2 4 6 4 2 3 5 3 2 2 6v2h-2v2l4 1v4l4 1 6 3 7 2v2l3-2 4 1-19 11-34 20-18 11-9 6h-3v2l-7 3-7 5h-3v2l-11 6-13 8-24 14-3 2-6 2-8 6-9 4-4 2-6 1v-2l-6-1-3 1h-11l-13 1-7 2v2l-9 5h-4l-2 4-6 6-7 3-1 7-2-1-1 4-2 2-1 340h-1l-1-386 2-15 8-5 21-11 16-8 11-7 17-9 13-8 19-11 15-8 17-10 18-10 20-11 19-12 8-4z" fill="#880F9A"/>
<path transform="translate(564,482)" d="m0 0 4 2-13 8-12 7h-2v2l-6 3-3 4v6l1 3-2 5-6 1 2 3 7 2 2 2v3h3l-3-7 3 1 3 5 4 2h1l2-1 11 8v2l17-1 4 2-4 3-68 40-24 14-26 15-15 9-24 14-26 15-13 8-1-2-4 1-4-2v-2l-7-1-2-1v-2l-5-1-7-4-7-3-9-5-14-7v-2l-6-1 5-5 2-1-1-2 27-15 23-13 24-14 26-15 15-9 18-10 38-22 17-10 26-15 11-6 3-2h3v-2z" fill="#9186CB"/>
<path transform="translate(108,588)" d="m0 0 6 2 16 9 10 5 3 5 5 2v2l6 2 11 6 7 5 10 5 4 1 4 4 5 3 9 2 3 2 7 2 13 7 17 10h7l3-1v-2l10-6 14-7 2-3 4-1 9-6 16-8 12-5 2 1-7 5 5 2v2l6 2 8 4 11 6 14 7 3 1v2l9 2v2l8 1-1 4-11 6-25 14-21 12-23 13-6 2v2l-14 7h-2v2l-7 3-17 9-1 2-6-2-29-16-19-11-1-3h-2v-2l-5-2-15-8-5-2-1-2-4-1-1-2-9-5-4-1-1-2-4-2-1-4 6 1 2-5 8-4 3-4-3-3-2-14-5-5-2-4h-2v-2l-3-1-4-10-5-2-3-7-9-7-11-7-4-6z" fill="#EE0086"/>
<path transform="translate(659,497)" d="m0 0h3v20l-4 7-6 3h-2v3l-9 4-6 5-5 2-8 5h-3v2l-8 4-4 4-8 4-7 4-10 6-6 3-1 2-7 3-2 2-6 3-9 6-8 4-11 7-16 9-5 4-8 4-5 4h-2v2l-4 1v2l-5 1v2l-8 5-7 3-4 3h-3l-2 4-15 8-11 8-6 2-2 4-8 4-6 4-16 10-11 7-9 6-12 7h-3v2h-2l-2 4-4 3h-2l-1 3h-2v2h-2l1 3-5-2-15-9-9-5h-4l11 8 5 3 3 4-2 4-10 9-1 2h-2l-1 3-9 6-3 1-2 4-3 3-5 3-2 2 1 3 4 1-4 1-18-10-8-4-2-3-16-8v-4l19-10 5-1v-2l13-7h3v-2l24-13 15-9 11-6 29-16 11-7 13-8 26-15 24-14 22-13 26-15 39-23 29-17 25-15 8-5 11-6 22-13 16-10 9-5z" fill="#1E1E3B"/>
<path transform="translate(473,172)" d="m0 0 4 1 9 5 19 11 13 8 24 14 5 2v2l5 2 15 9 9 4 3 3 24 14 12 6 3 3 18 10 15 9 1 4 7 3h2v21h-1l-1-9-2 2-1-2h-3l-2-1v-2l-9-1h-5l-3 5-4-2v-2l-4 1-3 2h-22l-6 1-15-4-8-3h-6l-5 1-8-1-4-2h-7l-3 2h-4l-1-2h-6l-7-6-1-5-9-2-2-3 1-8-7-5h-6l-3-3 1-3-7-1-4-5v-2l-6-2-2-4-12-1h-4l-2-5-6-2-3-3-3-5-5-3-2-5h-2l-3-11-1-3v-3l9-6 11-6 14-8h2v-2h4z" fill="#DFD4F6"/>
<path transform="translate(101,256)" d="m0 0h3l1 2v326l-2-1-2-27-2-1-3-12-2-13-5-7-1-6-8-6-4-8-6-8-4-2v-3h-2v-2l-4-2-1-1-1-9-8-4-2-12-1 8h-1v-93l1-7 2-3 7-3 4-7 4-9 9-7 6-10 6-8 1-2 7-2 2-7 3-18h2v-26l-4 9-4 15-5 10-2 5h-2l-2 5-4 7-7 2-6 5h-3-3l-1 2-3-1 3-5 2-1 5-13 2-3h2l2-6 4-6h2l2-6 5-8h2l2-5 4-8 3-1 1-3z" fill="#EF0086"/>
<path transform="translate(736,198)" d="m0 0 10 1h3l16 8 8 5 10 5 3 4 2 16v108l-1 36h-1l-1-6-9 4-3 3-9 2-9 1-4 6-2 2h-6l-2 13h-1v-5h-2v7h-1l-1-7v-147l-4-1-11-6-12-7v-2l-5-1 1-4h-4v-6l-2-1 5-5 12-7 2-7 4-2v-4l13-1z" fill="#FD00B6"/>
<path transform="translate(471,171)" d="m0 0 3 1-1 2h-4v2l-23 13-11 7h-2l4 12v5h2l4 6 5 3 2 6 6 2 4 4v2l9-1 7 2 3 4 5 2 4 6 5 1 2 1v4l2 1v2l-5-2-21-12-6 1-21 13-10 6-11 6-24 14-14 8-5 3-21 12-12 7-6 3-10 6-4 2-3-1 2-2-8-2-1-3h-3v-3h-2v2h-3l-1-6-7-15-2-5-2-1v-2l-3-2 1-6 3-3h2l2-5 6-4v-3l13-8 4-1 4-4h4v-2l14-8h3v-2l12-6 10-6 19-11 14-8 18-10 21-12z" fill="#C0B4E8"/>
<path transform="translate(177,341)" d="m0 0h1l1 5 1 141v67l5 2 14 8 24 15 20 12 8 4 27-18 21-13h2l3 15v13l-6 5-7 6-6 3-9 6-9 4-7 3-10 4h-7l-9-3-8-2-10-6-11-6-10-5-2-4-8-1-6-2-2-4-5-2-5-4v-2l-6-2-2-5v-8l-1-10-4-1v-5l2-7-1-9 1-3-2-3 1-9-2-6 2-14 1-16 2-5v-7l-1-2v-16l1-3v-13l-2-3 1-6v-13l1-15 1-3 1-18 5-13 9-15 2-5z" fill="#1D1E3C"/>
<path transform="translate(416,2)" d="m0 0 5 1 11 6 15 8 8 5 24 14 6 4 14 7 9 6 14 9 16 8 21 11 9 5-3 1-3-1-6 4-7 7-11 9-6 8-5 2-1 2h-2l-1 5-3 5-4 1-12-7-49-28-23-13-11-7h-5l-15 9-26 15-3 1v-2l3-3 8-3 17-10 7-4-3-2v-3h2l1-6 3-2 2-7v-10l-4-2 1-3 5-1v-8l1-3h5l1-5 1-3-4-1 2-6 3-1v-5l-9-1-4 3h-6l5-4z" fill="#4F90E2"/>
<path transform="translate(558,295)" d="m0 0 6 1 16 9 22 13 1 1v141l-3 2-4-1-2-9-1-17 1-16v-69h-2l-2-15-1-5-5-2-10-5-5-3-10-1h-7l-8 4-8 5h-3v2l-8 2-1 3-7 4-3 2h-3v2l-16 9-1 2-9 4-4 4-7 4-4 3h-2v2l-10 4-8 5-6 4-1 2-7 3-3 1v2l-4 3-11 4-4 1-1 4-9 3-1 3-7 4h-3l-1 2-3 1-2 4-6 2-4 4-14 7h-2l-1 3-12 7-14 7-5 3-4 1h-12l-9-6-19-10-5-4-3-3v-2l-4-2-1-7 4-11 2-25h1l1 20 19 12 23 14 6-2 42-24 24-14 5-4 6-3 13-7 9-6 14-7 8-5 17-10 21-12 9-6 11-6 21-12 10-6 17-10z" fill="#1E1E3B"/>
<path transform="translate(516,402)" d="m0 0 4 1 10 6 16 10 11 6-1 29-15 8-5 4-12 6-13 8-11 6-22 13-13 8-6-2-20-12-28-17-10-6v-2l27-15 15-9 24-14h3v-2l11-6 16-9 8-4h2v-2z" fill="#BFB3E7"/>
<path transform="translate(113,241)" d="m0 0 7 1 1 1 4 1-9 6-9 5-3 3v-2l-9 5-5 6-5 10h-2l-2 5-5 9h-2l-2 5-3 5-1 2h-2l-2 5-5 12-4 4-1 4-3 2-2 3v-4h-2v10l-1 13v124l1 31 3 4h1l2 6 3 3 3 7 3 3 1 6h2l3 6v3h2l6 9 6 7 3 8 4 8 4 11 3 3 2 4 2 23-1 11-7 5v4l-5 2-2-4h-2v-2l-5 1 9 6 8 5-1 2-27-15-21-12-2-2v-350h1l1 6 2-4h1l2-6 8-4 7-8 7-3 6-2v-2l8-3 12-1h13z" fill="#BD0080"/>
<path transform="translate(179,350)" d="m0 0h1l1 42h1l1 40 3 2 1 7 3 1 3 5 3 9 5 4 1 7 6 9 1 7h3l2 6-1 8 5 2 3 8 3 1 10 15 6 8 2 12 7 15 4 12 2 13h6l6-1-1 4-15 10-12-6-16-10-26-16-17-10-1-68z" fill="#6861A4"/>
<path transform="translate(305,265)" d="m0 0 4 2-7 5-2 4-4 1-1 8 3 2 2 5 10 20-1 4h3v-2h2l1 2 3 1 2 3 8 2-3 5-20 11-24 14-24 13-16 10h-9l-6-7-1-7-4-8v-6l-1-3h-3l-5-12 1-9 3-3 8-5 3-5 27-15 17-10 21-12z" fill="#9186CB"/>
<path transform="translate(473,172)" d="m0 0 4 1 9 5 19 11 13 8 24 14 5 2v2l5 2 15 9 9 4 3 3 24 14 12 6 3 3 2 1 1 4 7 3 2 4-3 2h-3l-1-2-12-1-16-3-3 1-3-1-13 1-4-1h-6l-6-6-6 1-16-6-5-3-10-1v-2l-5-2-1-4-3 1-4-5-2-1v-3l-7-1-3-4-7-2-4-3-6-3-4-8-6-1-5-11-6-4-5-9v-4l12-7h2v-2h4z" fill="#E4DAF8"/>
<path transform="translate(376,329)" d="m0 0 2 1-1 3-12 7v2h-2l1 7 1 9 3 4 5 13h1l-1 10 6 3 1-3 5-1v2h9l3 3-3 3-28 16-17 10-25 14-5-2-25-15-14-9v-22l25-14 23-13 24-14 11-6z" fill="#9186CB"/>
<path transform="translate(321,623)" d="m0 0 2 1-7 5 5 2v2l6 2 8 4 11 6 14 7 3 1v2l9 2v2l8 1-1 4-11 6-25 14-28 16-5-1-2-1-9 1-3 1-5-4-12-5-5-5-6-9-6 1-1 1h-5l-2-3 4-1v-2l-6 1-4-4 1-2-6-1v-2l-4-1-3-3-24-13-2-2v-2l5 2 12 6 17 10h7l3-1v-2l10-6 14-7 2-3 4-1 9-6 16-8z" fill="#FD009C"/>
<path transform="translate(251,101)" d="m0 0 10 2 4 6 4 2 3 5 3 2 2 6v2h-2v2l4 1v4l4 1 6 3 7 2v2l3-2 4 1-19 11-51 30h-6l-8-6-3-4-11-2-3-6-12-3-9-6-4-2-1-5 3-1 1-2-4-1 21-12 22-12 19-12 8-4z" fill="#4B4FB8"/>
<path transform="translate(467,243)" d="m0 0 6 1 21 12 4 2v2l-12 7-3-1 1-1-4-1h-12l-9 3-7 2-4 4-8 4-11 6h-2v2l-15 8-5 4-5 2-3 3-6 3-3 3-11 7-12 7-5 3h-2v2l-10 5-3 1-1 3-12 6-5 3h-2v2l-10 6-7 4h-2v2h-2v2l-10 5h-2v2l-7 4-11 7h-2v2l-9 6h-2v2l-11 4-9 6-1-25 10-7 29-16 42-24 10-6 9-6 7-3 7-4 7-5 16-8 3-3 14-7 24-14 11-7 11-6 15-9z" fill="#1E1E3B"/>
<path transform="translate(733,254)" d="m0 0h3l1 147h3l1 2 1-11h6l4-4 3-4 9-1 2-1h7l1-3 9-4h2v-9h1l1-17h1v53l-1 9-1 31-1 19h-3l-4-2-1-3-5 4-11 4-3 4-5 1h-9v16l-4 1-1 16h-2l-2-80v-167z" fill="#BE02A0"/>
<path transform="translate(174,144)" d="m0 0h6l-2 4-2-1 2 5 9 5 5 3 10 2 3 6 11 2 6 7 5 3 5 1-4 4-5 3h-3v2l-7 3-7 5h-3v2l-11 6-5 2-3-1v2h-4v2l-9-1-5-3h-6l-7-4-9-4-7-3v-2l-5-2-6-4-3-4v-2h-2l2-4 4-1-1-6 23-13 15-8z" fill="#672AAC"/>
<path transform="translate(224,312)" d="m0 0 2 1-1 3-10 6-2 1v9l4 10v2h3l2 3v7l4 7 2 9 4 4h10v104h-2l-1-18-3-12-1-5-6-1-7-8v-2l-4-1v-3l1-8h-2v-2l-4-1-3-16-3-3v-2h-2l-2-10-2-1-4-6-3-5-2-10-4-2-5-1-1-2v-19h-3v-2l19-11 23-13z" fill="#7C72B7"/>
<path transform="translate(787,407)" d="m0 0h1v142h-1l-1-5-1-27-3 6h-2l-2 4-4 1-8 3-7 11-5 2h-6v2h-2v4l-3 3h-3l-1 25h-2l-1-37-1-64v-55h1l1 43v37h2v-16l2-2 2 1 1-16 9-1 6-2 4-4 11-4 3-3 2 1v3l5 2 1-19 1-31z" fill="#8F0FA2"/>
<path transform="translate(553,455)" d="m0 0h2v15l-4 8-6 4-8 3-6 5-4 2h-3l-1 4-11 6-10 6h-2v2l-5 3-8 3-7 5-14 5h-9l-13-3-5-3-6-2-7-6-3-1-1-2-16-8-9-6-4-3v-9l7-14 11 6 25 15 27 16 5-2 24-14 15-9 21-12 9-5 5-4z" fill="#1E1E3C"/>
<path transform="translate(564,482)" d="m0 0 4 2-13 8-12 7h-2v2l-6 3-3 4v6l1 3-2 5-6 1 2 3 7 2 2 2v3h3l-3-7 3 1 3 5 4 2h1l2-1 11 8v2l17-1 4 2-4 3-46 27-8 4-1-2-5 3-12 2-5-3-2-8-6-3-3-12-1-6-6-2-1-4-1-3-1-5 26-15 3-3 1-3 26-15 11-6 3-2h3v-2z" fill="#A196D6"/>
<path transform="translate(498,412)" d="m0 0 2 1-1 3-14 8-10 7-2 2h-3v14l2 4 4 3 4 4v5l5 4v2l4 2v6l1 4 9 1 2-4v2l6-1-1 4-23 13-18 11-6-2-20-12-28-17-10-6v-2l27-15 15-9 24-14h3v-2l11-6 16-9z" fill="#A196D6"/>
<path transform="translate(414,7)" d="m0 0 9 1 1 3-1 3-3 2-2 5 4 1-1 5-1 3h-5l-1 11-5 2 1 3 2 1 1 10-3 8-3 1-1 6h-2v3l4 2-15 9-9 5-7 1-3-2 1-2-6-1 1-2-4-2-2-5v-3h-2l1-4-3-1-2-6h2l-1-2v-6l-4-2 1-6h-2l-1 4-4-2-2-2h-7l5-4 20-13 21-11 10-6 6-3 8-1z" fill="#2586E1"/>
<path transform="translate(787,240)" d="m0 0h1v105l-1 36h-1l-1-6-9 4-3 3-9 2-9 1-4 6-2 2h-6l-2 13h-1v-5h-2v7h-1l-1-7v-75h1l1 6 2-2 1 14 1-13 2 3 7-2 2-4 5-2h5v-2l5-2 1-3h4v-2l9-4h2v-6h-2v-5h3v-23l1-5v-21z" fill="#ED03AD"/>
<path transform="translate(376,593)" d="m0 0 2 1-3 5v4l6 1h4l5 10 2 9h2l2 5v7l-7 5-1 4h8l8 1-1 4-19 11-4 2v-2l-4 1-4-2v-2l-7-1-2-1v-2l-5-1-7-4-7-3-9-5-14-7v-2l-6-1 5-5 2-1-1-2 27-15 21-12 5-1z" fill="#7C73B7"/>
<path transform="translate(509,127)" d="m0 0h6l4 3 5 2 25 15 12 6 9 6 8 4 15 9 6 3 10 6 19 11 11 6 3 3 16 8 14 9 14 8 10 5 8 5 5 2v2l5 2 16 9 3 2v2h2l-1 287-2 16-1 5h-1v-48l1-16 1-2-2-1v-11l1-14v-45l-1-2v-32l1-13-1-8v-21l1-7-1-5 1-14v-6l-1-1-1-17v-34l-2-6-2-1v-2l-6-1-4-3-4-2v-2l-6-2-2-3h2v-3l-4 1-2 2-3-2 1-1-5-1v-2l-5-1-4-4-8-3-8-5v-2l-10-3-6-4v-2l-5-1-5-3-1-3-13-5-15-9-2-4-1 2-11-6-2-2 1-1-2-1-1-4v5l-6-2-5-3-4-3v-2l-9-3-18-10v-2l-4-1-10-5-3-2v-2l-5-1-6-3v-2l-5-1-4-3-4-2-1-2-3-1v-3h2z" fill="#220E2E"/>
<path transform="translate(370,670)" d="m0 0 4 1-2 1-1 4-6 3h-3v2l-7 4-3 2h-5l-2 5-4 3h-8l-2 2-1 5-3 3h-10l11 8 5 3 3 4-2 4-10 9-1 2h-2l-1 3-9 6-3 1-2 4-3 3-5 3-2 2 1 3 4 1-4 1-18-10-8-4-2-3-16-8v-4l19-10 5-1v-2l13-7h3v-2l24-13 15-9 11-6 16-9h4v2l7-4z" fill="#1E0E29"/>
<path transform="translate(518,60)" d="m0 0 19 9 12 7 10 5 9 5-3 1-3-1-6 4-7 7-11 9-6 8-5 2-1 2h-2l-1 5-3 5-4 1-12-7-21-12-19-11-1-2 9 3 5 2v-2l2-1-2-2 7-3 9-2 6-8 5-4 6-4 5-5h2l2-4 1-4-2-1z" fill="#7C7CC9"/>
<path transform="translate(413,106)" d="m0 0 10 1 8 3v2l8 1 8 4 8 5 12 6 5 3 5 2 8 5 14 8 6 3 3 2v2l4 2 8 3 2 2 6 2v2l5 1 5 4 8 3 8 5h2l3 3 8 4v2l4 2 8 3 5 3 4 4 5 2 4 4 6 3 2 5 5 2 4 3 5 1 3 2v3l3 1 1 2h6l5 3v3h2v2l6 2 1 3 6 2 6 3h5l5 5 1 2 9 3 4 4 8 6 1 2 6 3 5 5 4 5-5-2-3-3-8-5-5-2-1-4-4-1-10-5v-2l-4-1v-2l-5-1-9-6-4-2v-2h-3v-2l-6-2-7-4-10-6-11-7-4-2v-2l-5-2-15-9-8-5-9-4-7-5-5-2-9-5-5-5-6-2-6-4v-2l-6-2-4-3-7-2v-2l-6-2-2-1v-2l-5-1-5-3-6-4-5-2-5-3-13-8-10-6-7-3-4-3-9-3-5-4-7-3-3-2h-16l-1 2-12 6-5 4-18 11-6 5-5 3-9 6-14 9-8 5-3 1-1 2h-2l-2 4-9 4-10 7-2 2-9 2-1 3-3-1 1-5 5-1v-2h3v-2l5-3 6-5 6-3 9-9 8-1v-2h2l2-4 3-3 7-3 2-2 5-2 10-7 6-3 7-6 18-9 3-3 7-3z" fill="#1F346A"/>
<path transform="translate(125,172)" d="m0 0 3 1-1 4-5 3-1 2h2l4 6 10 6v2l9 3 7 3 4 3 12 2 2 2 9 2v-2h4v-2h3l-1 3-26 15-8 5h-2v-2h-6v-3l2-1-6-3-1 2-16-2-2-1v-2l-10-1-3-1h-6l-8-2-5 1-5-2v-2h-13l2-6-4 1-4-1 16-8 11-6 10-6 15-8z" fill="#76159D"/>
<path transform="translate(611,206)" d="m0 0 10 5-2 3 6 4 5 4v2l5 1v2l10 5 4 4 16 7v2l5 2 16 10 5 5 6 2 3 3 6 4v2l5 2 6 7 2 7 2 20 1 7v40l-2 8 1 35-2 32v45l-2 10-1 1-1 16-3 9h-2l2 6 2 1 1-5 2-1v6l-2 1-1 8h-3l2 10v15l-2 10-2-4-2-10-1-13 1-5v-14l3-41 2-1 1-6-3-8v-17l2-9v-11l1-13v-56l1-5v-42l-1-13-3-9-6-9-6-5-4-4-4-2-5-5-6-4-3-3-8-3-5-5-7-2-10-5-2-3-5-2v-2h-2l-1-3-5-2h-5l-4-4-1-3-4-2-4-1-8-5-2-4 5-1h2z" fill="#283367"/>
<path transform="translate(376,329)" d="m0 0 2 1-1 3-12 7v2h-2l1 7 1 9 3 4 5 13h1l-1 10 6 3 1-3 5-1v2h9l3 3-3 3-28 16-3 2-4-1-9-9-7-15-3-9-3-4v-12l-3-3 5-3 1-4 17-10 11-6z" fill="#A196D6"/>
<path transform="translate(101,256)" d="m0 0h3l1 2v326l-2-1-1-10-1-155-1-5 1-18v-103l-1-26-4 9-4 15-5 10-2 5h-2l-2 5-4 7-7 2-6 5h-3-3l-1 2-3-1 3-5 2-1 5-13 2-3h2l2-6 4-6h2l2-6 5-8h2l2-5 4-8 3-1 1-3z" fill="#FA00B1"/>
<path transform="translate(305,265)" d="m0 0 4 2-7 5-2 4-4 1-1 8 3 2 2 5 10 20-1 4h3v-2h2l1 2 3 1 2 3 8 2-3 5-20 11-9 5-2-1 3-1-2-3h-5l-3-4-2-10-6-7-1-8-3-1-4-11 1-5 3-6 3-3v-2l24-14z" fill="#A196D6"/>
<path transform="translate(734,584)" d="m0 0h2l-2 4-11 7-5 1v2h-3v2l-19 11-8 4h-2v2l-21 11-15 8-3 3-21 11-17 10-14 8-12 7-10 6-15 8h-2v2l-9 3v2l-14 8-16 8h-2v2l-3 3-8 3-19 10-10 6-15 8-9 5-11 7-15 8-7 2-7-3v-2l-5-1v-2h-3v-2l-5-1v-2l-5-2-10-5v-2l-9-3-23-14-9-5v-2h6l24 14 23 13v2l6 2 17 10 6-2 27-15 15-8 8-5 27-15 33-18 15-9 15-8 15-9 18-10 17-10 27-15 10-6 6-3 16-9 17-10 14-8 17-10z" fill="#9E25AC"/>
<path transform="translate(412,100)" d="m0 0 12 1 12 4 17 9 10 6 7 3v2h5l6 5 9 4v2l5 2 7 2 3 4v2l6 2 12 6 9 6v2l9 2 5 4 10 5 4 3 6 3 1 2 11 4v2l5 2 11 7 8 3 5 4 4 2-2 4-3-1-5-1-6-4-3-3-7-3-2-3-5-3-7-2-7-6-8-4-9-5-5-3-7-3-4-3-3-1v-2l-7-2-5-3-5-2-3-2v-2l-4-2-5-2-14-8-8-5-26-13-5-4-11-4-4-1v-2l-5-1-12-2-12 3-8 4-3 3-7 3-13 7-7 6-11 6-5 4-4 2-9 4-5 1 1-5 9-5 12-7 3-1 4-5 10-5 2-2h3v-2l5-3h3v-2l10-5h2v-2l4-2 8-2z" fill="#232B55"/>
<path transform="translate(785,411)" d="m0 0h1v39l-1 11h-3l-4-2-1-3-5 4-11 4-3 4-5 1h-9v16l-4 1-1 16h-2l-1-49h1l1 5 2-10 5-1 6-11 1-1 9-1 4-7 4-2 10 1 3-1 2-4z" fill="#A9009B"/>
<path transform="translate(113,241)" d="m0 0 7 1 1 1 4 1-9 6-9 5-3 3v-2l-9 5-5 6-5 10h-2l-2 5-5 9h-2v2l-6-1 3-10 2-2 1-5-5 3-7 6-7 3-5 1-1-7-3-1v-5l2-4h1l2-6 8-4 7-8 7-3 6-2v-2l8-3 12-1h13z" fill="#A9009A"/>
<path transform="translate(195,132)" d="m0 0h2v2h-2l-1 9 5 1 17 3 5 4h9l7 6 12 2h5l3 2 7-1 3-2 3 1-13 8-24 14h-6l-8-6-3-4-11-2-3-6-12-3-9-6-4-2-1-5 3-1 1-2-4-1z" fill="#5D4DB1"/>
<path transform="translate(450,440)" d="m0 0 4 2-14 9v9h2l3 8 6 7 2 10 5 6 10 8 5 2-5 4-5 2-24-14-28-17-10-6v-2l27-15 15-9z" fill="#9085CA"/>
<path transform="translate(786,306)" d="m0 0h2v39l-1 36h-1l-1-6-9 4-3 3-9 2-9 1-4 6-2 2h-6l-2 13h-1v-5h-2v7h-1l-1-7v-32h2l2-4 1 10 1-13 1 2 8-2 5-3h2l1-3 10-2 9-1v-2l4-1 2-7z" fill="#DD0BA7"/>
<path transform="translate(100,265)" d="m0 0h1v24l-1 3h-2v8l-3 15-4 4h-5l-2 5-6 8-6 9-8 6-3 8-5 8-4 2h-3l-2 10h-2v-23l2-23h5l3-3h2l1-3 5-1 2 1 5-5 7-1 6-12h2l1-5 5-10 6-21z" fill="#D80082"/>
<path transform="translate(363,102)" d="m0 0 4 1-28 16-13 8-21 12-9 2v-2h-5l-12-6v-4l-4-1v-2h2l-2-5v-3l-4-2-3-5v-2l10-2 6 4 6 2h13l1-5h3v-2h5l5 1 10 1 1 3 5 2-1 3-2 1v3l6-2v-4h2v2l10-5 2-2 5-2z" fill="#4E7ADD"/>
<path transform="translate(316,704)" d="m0 0 7 1 14 8 9 6v2l-4-1v2l4 1 1 4h2v2l-5 5-6 8-3 5-3 2-3 9-2 5 1 8 2 1v2l3 1 3 6 5 2 1-2 3 5 3 3-6-1-23-13-17-10-3-3 1-1-3-1-2-4 5-4 5-3 5-5 8-6 3-3h2l2-4 10-9-2-6-5-2-11-8z" fill="#4E126A"/>
<path transform="translate(552,318)" d="m0 0h13l8 3 8 5 8 4 3 9v11h2l1 21v49l-1 23 2 16 2 4-8 5h-4l-2-13v-16l1-21 1-9 1 3 3 1v-12l-1-8 1-16-1-10v-7l1-8-2-11-5-6-5-3-12-6-8-1-15 4-11 5-11 6-4 3h-2l1-4 5-4 3-1 3-3 6-1v-2l11-6z" fill="#2E3260"/>
<path transform="translate(417,567)" d="m0 0 2 1v2l-24 15 5-1-1 9-4 7 3 5 4 9 1 8 6 1 3 7 2 2 9 1 8-4h2l-1 3-24 14-3 2-3-1h2v-2l-4 1-12-2 1-5 6-4v-7l-1-5h-2l-4-10-4-9-7 1-3-2 1-7 1-2-5 2v-2l24-14z" fill="#8775C3"/>
<path transform="translate(536,69)" d="m0 0 16 8 16 9-3 1-3-1-6 4-7 7-11 9-6 8-5 2-1 2h-2l-1 5-3 5-4 1-2-5h3l-2-4 3-6 5-5 2-5-3 1-5 6h-2l-1 3-9 1 2-6 2-4 8-6 4-7 1-3h2v-2l4-4 3-5 5-4z" fill="#9287CC"/>
<path transform="translate(562,85)" d="m0 0 10 3 14 8-4 1-4 2-15 10-4 3h-2v2l-5 3h-3l-1 3-4 3h-3v2l-9 6-4 3-4-1-6-3 4-7 2-5h2l1-3 5-1 2-4 7-8 11-9 8-7z" fill="#D343C4"/>
<path transform="translate(558,324)" d="m0 0 8 1 12 6 8 6 3 4 2 14-1 10v8l1 7-1 17 1 4v15l-4-4-1-5v-42l-1-2v-10l-3-8v-3h-2l-5-5-11-5-9 1-6 1v2l-9 3-10 4-3 3-7 4-6 3h-2v2l-13 9-5 2-12 7-4-1 2-4 8-6 14-7 3-3 9-5 11-8 10-5 4-4 10-4z" fill="#283367"/>
<path transform="translate(729,273)" d="m0 0 3 2 2 7v260l-2 16-1 5h-1v-48l1-16 1-2-2-1v-11l1-14v-45l-1-2v-32l1-13-1-8v-21l1-7-1-5 1-14v-6l-1-1-1-17z" fill="#1D1430"/>
<path transform="translate(101,256)" d="m0 0 3 1-8 18-4 15-5 10-2 5h-2l-2 5-4 7-7 2-6 5h-3-3l-1 2-3-1 3-5 2-1 5-13 2-3h2l2-6 4-6h2l2-6 5-8h2l2-5 4-8 3-1 1-3z" fill="#DD0AA7"/>
<path transform="translate(619,212)" d="m0 0 5 1 14 8v2l16 8 10 6 10 7 7 4 12 7v2l5 1 4 2v2l5 2 2 1v2l4 1 7 8 4 11 1 20 1 2v21l-5-1v-16l-2-14-1-12-3-6v-2l-3-1-4-4-6-5-5-3v-2l-7-2v-2l-4-2-13-8-8-5v-2l-5-1-14-7-1-3-5-1-5-4v-2l-5-1v-2l-6-3v-2l-4-1-3-3z" fill="#2E315F"/>
<path transform="translate(106,402)" d="m0 0h1l1 6 2 35 1 5-1 12v36l1 16-1 4 1 2v39h2l2 3 1 15h-2l-1 5-1 2-6 1z" fill="#1E1E3B"/>
<path transform="translate(510,711)" d="m0 0 4 1 1 2-3 3-8 3-19 10-10 6-15 8-9 5-11 7-15 8-7 2-7-3v-2l-5-1v-2h-3v-2l-5-1v-2l-5-2-10-5v-2l-9-3-23-14-9-5v-2h6l24 14 23 13v2l6 2 17 10 6-2 27-15 15-8 8-5 27-15z" fill="#8E23A8"/>
<path transform="translate(326,712)" d="m0 0 7 4 3 4-2 4-10 9-1 2h-2l-1 3-9 6-3 1-2 4-3 3-5 3-2 2 1 3 4 1-4 1-15-8 3-2 2-4 3-3 1-2h2v-2l8-6 2-2 4-1 5-6 8-6 5-4z" fill="#1F1F3C"/>
<path transform="translate(316,705)" d="m0 0 10 6v5l-6 5-11 9-2 3-5 2-7 6h-2v2h-2l-2 5-2 1-2 4h-5l-2-2-7-3-1-3h2v2l4-4 3-6h2l1-4 13-5 6-4 6-10 9-3z" fill="#1D1531"/>
<path transform="translate(105,260)" d="m0 0h1v323l5 2 11 7 5 2v2l5 2 13 7 13 8 18 10 6 3v2l6 2 22 13-3 1-3-2-11-3-7-5v-2l-6-1-14-8-10-6-8-4v-2l-6-2-1-3-2-1-4-3-7-3-10-6-13-6z" fill="#7F0792"/>
<path transform="translate(140,221)" d="m0 0 4 1 3 3h-3v3h6v2l-9 5-3 3-9 4-4 2-6 1v-2l-6-1-3 1h-11l-12 1v-2l6-2v-2l12-4 4-4 12-4 8-1 5-3h5z" fill="#8F0BA1"/>
<path transform="translate(224,312)" d="m0 0 2 1-1 3-10 6-2 1v9l4 10v2h3l2 3v7l4 7 2 9 4 4h10v40l-2 4-1-34-9 1-3-4-5-12-2-2-1-9-4-6-9-11v-15h-3v-2z" fill="#8876C4"/>
<path transform="translate(471,263)" d="m0 0h9l4 1 2 1-3 4-11 6-9 5-11 7-10 5h-2v2l-6 3h-4v-2l2-2-9 2h-3l5-5 3-1h3l1-3 5-2h6l-1-1 4-5h2l2-4 11-6 9-3z" fill="#2E3362"/>
<path transform="translate(418,72)" d="m0 0h6l9 2 8 5 1 2 3 1 3 3v-3l6 1 7 3 7-1 10 4h10l7-3h3l-5 7-11 3-3 1 2 2-4 1v2l-5-1-9-3-11-6-20-11-11-7z" fill="#4F79DB"/>
<path transform="translate(321,623)" d="m0 0 2 1-7 5 5 2v2l6 2 8 4 11 6 14 7 3 1v2l9 2v2l8 1v2l-8 2-12-3-5-3v-2l-5-1-16-9-10-6-9-4-5-2v-2l-14 8-8 5-2-1 19-12 14-8z" fill="#D840C4"/>
<path transform="translate(102,427)" d="m0 0 3 1v156l-2-1-1-10z" fill="#FC00B6"/>
<path transform="translate(370,670)" d="m0 0 4 1-2 1-1 4-6 3h-3v2l-7 4-3 2h-5l-2 5-4 3h-8l-2 2-1 5-3 3h-14l-3-3 21-12 23-13 5-3h4v2l7-4z" fill="#1F0F2B"/>
<path transform="translate(603,658)" d="m0 0h5l-5 6-15 8-13 8-17 9h-2v2l-9 3v2l-14 8-16 8-4 1-1-3 22-12 15-9 15-8 15-9 18-10z" fill="#9219A5"/>
<path transform="translate(356,136)" d="m0 0 2 1-1 2-5 3-5 4h-4v2l-5 3-5 2-1 6-6 5-1 2h-2l-2 4-9 4-10 7-2 2-9 2-1 3-3-1 1-5 5-1v-2h3v-2l5-3 6-5 6-3 9-9 8-1v-2h2l2-4 3-3 7-3 2-2 5-2z" fill="#273367"/>
<path transform="translate(706,239)" d="m0 0h2l3 3 5 1 14 8 3 2v2h2v19l-1 8-2-1-2-7-2-10-1-4-2-1v-2l-6-1-4-3-4-2v-2l-6-2-2-3h2l-1-4z" fill="#1D0F2A"/>
<path transform="translate(95,255)" d="m0 0h9l-4 3-5 3-5 6-5 10h-2l-2 5-5 9h-2v2l-6-1 3-10 2-2v-6l9-11 6-3 5-4z" fill="#C000A0"/>
<path transform="translate(539,330)" d="m0 0 2 1-3 6-6 3h-2l-1 5-6 3-6 4-5 1v2l-13 9-5 2-12 7-4-1 2-4 8-6 14-7 3-3 9-5 11-8 10-5z" fill="#283367"/>
<path transform="translate(342,720)" d="m0 0h6l24 14 23 13v2l6 2 14 8v3l1 2-5-1v-2l-5-1v-2h-3v-2l-5-1v-2l-5-2-10-5v-2l-9-3-23-14-9-5z" fill="#A01DAB"/>
<path transform="translate(351,790)" d="m0 0 5 2 6 3 16 9 15 8 7 4 3 2 6 2 3 3 2 1v-3l8 1 8-2h5v2l-14 7-7-1-63-35z" fill="#4B2B7B"/>
<path transform="translate(320,648)" d="m0 0 4 1 2 5v3l10 2 13 3 1 4-3 3-6 1-7-4h-5l-4 1-3-6 1-4-12-3v-3z" fill="#FE00B7"/>
<path transform="translate(552,318)" d="m0 0h13l8 3 3 5 3 1 1 3-6-2v-2l-4-1-9-2-7 1-7 2-5 4-10 4-11 6-4 3h-2l1-4 5-4 3-1 3-3 6-1v-2l11-6z" fill="#232B55"/>
<path transform="translate(327,619)" d="m0 0 3 2-6 5 3 1v2h3v2l6 2 14 10v2l5 2 11 6 6 3-4 1-5-2v-2l-5-1-7-4-7-3-9-5-14-7v-2l-6-1 5-5 2-1-1-2z" fill="#900CA2"/>
<path transform="translate(619,212)" d="m0 0 5 1 14 8v2l16 8 10 6-4 1 1 1 2 4-9-4-8-4-1-3-5-1-5-4v-2l-5-1v-2l-6-3v-2l-4-1-3-3z" fill="#2E315F"/>
<path transform="translate(241,517)" d="m0 0 12 6 10 6 4 2 3-1 15 9 16 10-1 4-4 2-1-4-14-8-19-10-5-3-11-7-5-4z" fill="#8579C0"/>
<path transform="translate(106,402)" d="m0 0h1l1 6 2 35 1 5-1 12-1 30-3 1z" fill="#212141"/>
<path transform="translate(468,263)" d="m0 0 3 1 1 2-13 4-9 5-7 7v3h-6l-5 2-1 2-8 2 1-3h2l-1-3h2v-2l9-5 12-6h2l2-4z" fill="#2F3260"/>
<path transform="translate(410,277)" d="m0 0 3 2 1 5-10 5-10 2-6 6-12 2 1-3 5-4 14-7z" fill="#1F1937"/>
<path transform="translate(351,607)" d="m0 0 2 1-7 4-3 9h-2l-1 2-5 2-4 2-1 2h-3v-2l-4-1 6-5-1-3 14-8 5-1z" fill="#726AAD"/>
<path transform="translate(524,103)" d="m0 0 2 1-3 6-5 5-2 6 1 3h-3l1 3-6-2-12-7v-1l7-1 7-3h3l5-5z" fill="#8572C1"/>
<path transform="translate(603,658)" d="m0 0h5l-5 6-15 8-13 8-9 5h-3l2-5 23-13 14-8z" fill="#941AA7"/>
<path transform="translate(611,206)" d="m0 0 10 5-2 3 6 4 5 4v2l5 1 1 3-10-1-4-4-1-3-4-2-4-1-8-5-2-4 5-1h2z" fill="#283367"/>
<path transform="translate(148,611)" d="m0 0 9 3v2l6 2 9 6 7 1 3 1v2l6 2 22 13-3 1-3-2-11-3-7-5v-2l-6-1-14-8-10-6-8-4z" fill="#CB0CA9"/>
<path transform="translate(734,584)" d="m0 0h2l-2 4-11 7-5 1v2h-3v2l-19 11-2 1 1-4 4-4 15-9 18-10z" fill="#991FA9"/>
<path transform="translate(492,334)" d="m0 0 7 1v4l-12 7-5 2-9-1 1-3 11-6z" fill="#1E1735"/>
<path transform="translate(446,256)" d="m0 0h5l-1 2h-2v5l-5 2v-3l-4 3v2l2 1-7 3-10 3-2 1-2-2v-2l11-7 11-6z" fill="#1F1A3A"/>
<path transform="translate(557,327)" d="m0 0 6 1v2h3v2h-8l-9 2v2l-9 3-7 3h-3v-2l6-3h2l2-6 4-1 5-2z" fill="#1F356B"/>
<path transform="translate(714,390)" d="m0 0 2 1 1 15-2 14v14l-2 8 2 8-2 2-2 7-1-4v-11l2-9v-11l1-13v-19z" fill="#2F3260"/>
<path transform="translate(536,168)" d="m0 0 10 4 8 5h2l3 3 8 4v2l4 2 8 3 5 3 4 5-7-2-5-4-5-2-3-3-12-4-5-6-6-2-9-6z" fill="#293365"/>
<path transform="translate(445,747)" d="m0 0 2 1-2 3 2 1-22 12-7 2-5-5 3-1 4 1 24-13z" fill="#9018A4"/>
<path transform="translate(564,482)" d="m0 0 4 2-13 8-12 7h-2v2l-6 3-2 2-7-1 5-4 15-8 3-2h3v-2z" fill="#A095D4"/>
<path transform="translate(588,193)" d="m0 0 9 4 5 2 5 4 4 2-2 4-3-1-5-1-6-4-3-3-7-3-1-2 4 1z" fill="#2E315F"/>
<path transform="translate(142,674)" d="m0 0 5 1 4 2v2l5 1 9 5v2l5 1v2l5 1 20 11v2h2l-1 2-18-10-28-16-8-5z" fill="#CD1091"/>
<path transform="translate(210,644)" d="m0 0 5 2 12 6 17 10h7l3-1v-2l4-1v2h-2v3l-9 2-5-1-14-7-14-8-4-3z" fill="#AA08A0"/>
<path transform="translate(635,640)" d="m0 0 2 1v3l-25 14-6 4-2-1 3-2-2-2 25-14z" fill="#9D2BAE"/>
<path transform="translate(316,704)" d="m0 0 7 1 14 8 9 6v2l-7-1-11-6-11-8z" fill="#50106B"/>
<path transform="translate(199,705)" d="m0 0 16 8 5 3v2l6 1v2l6 2 6 3v2l7 2 3 2 5 1-1 3-6-2-29-16-19-11z" fill="#D01091"/>
<path transform="translate(406,70)" d="m0 0 9 2v3l-26 15-15 9h-2v-2l3-3 8-3 17-10 7-4-3-2v-3h2z" fill="#4D6DD1"/>
<path transform="translate(342,720)" d="m0 0h6l24 14-1 4-5-2-20-12-4-2z" fill="#900DA2"/>
<path transform="translate(102,534)" d="m0 0h1v11h2v39l-2-1-1-10z" fill="#F400B0"/>
<path transform="translate(430,820)" d="m0 0h5v2l-14 7-7-1-3-3 1-2 2 1v-3l8 1z" fill="#4D1F74"/>
<path transform="translate(468,263)" d="m0 0 3 1 1 2-13 4-15 8h-7l4-2 7-4h2l2-4z" fill="#232B55"/>
<path transform="translate(277,536)" d="m0 0 4 1 14 8 6 4-1 4-4 2-1-4-7-4v-2l-11-7z" fill="#8276BD"/>
<path transform="translate(454,281)" d="m0 0 4 1-3 3-13 7h-2v2l-6 3h-4v-2l9-6 3-3 9-3h3z" fill="#1F3F7E"/>
<path transform="translate(437,284)" d="m0 0h6l-1 3-5 5-14 3h-3l5-5 3-1h3l1-3z" fill="#293366"/>
<path transform="translate(619,212)" d="m0 0 5 1 14 8 1 6-9-3v-2l-6-3v-2l-4-1-3-3z" fill="#252C56"/>
<path transform="translate(786,306)" d="m0 0h2v39l-2 4-2-6z" fill="#D725B3"/>
<path transform="translate(142,606)" d="m0 0 6 1 28 16-4 2-5-4-10-5v-2l-6-1-9-4z" fill="#930B9E"/>
<path transform="translate(510,711)" d="m0 0 4 1 1 2-3 3-8 3-8 4-2-2 5-5z" fill="#8A14A2"/>
<path transform="translate(417,567)" d="m0 0 2 1v2l-16 10-7 4-4-1 3-3z" fill="#877AC2"/>
<path transform="translate(611,206)" d="m0 0 10 5-2 3 6 4 5 4-1 2-12-8-5-3-6-4v-2h4z" fill="#2F3260"/>
<path transform="translate(322,151)" d="m0 0h3l-1 4-8 5h-2v2l-6 1v2l-4-2 7-6h3v-2z" fill="#232B55"/>
<path transform="translate(94,191)" d="m0 0h6l5 5-3 3-4 1v-3l-8 2v-5z" fill="#66118D"/>
<path transform="translate(310,627)" d="m0 0 3 1-21 13-6 4-7 1 1-3 4-1 9-6 16-8z" fill="#B910A4"/>
<path transform="translate(567,331)" d="m0 0h8l2 1 2 4 3 2v2l3 1v10l-2-2-1-7h-2l-5-5-9-4z" fill="#1F356B"/>
<path transform="translate(466,736)" d="m0 0m-2 1 2 1 1 2-11 6-8 5h-3l2-5z" fill="#9E25AD"/>
<path transform="translate(311,630)" d="m0 0 2 1-3 1v2l5 1 6 3-3 1-4-1-1 7h-7v-3l3-3v-4l-3-2z" fill="#F602B3"/>
<path transform="translate(715,339)" d="m0 0h1l1 12-1 22-1 10h-1l-1-28 1-5v-10z" fill="#2F3260"/>
<path transform="translate(363,102)" d="m0 0 4 1-28 16-4 3-2-1 3-7h2v2l10-5 2-2 5-2z" fill="#4D6ED2"/>
<path transform="translate(363,651)" d="m0 0h6l8 5 7 1-1 4-3 1v-2l-4 1-4-2v-3l-6-2z" fill="#8A51B8"/>
<path transform="translate(371,735)" d="m0 0 4 1 13 7-2 2 2 1v2l-5-2v-2l-9-3-4-4z" fill="#9A15A7"/>
<path transform="translate(254,732)" d="m0 0 2 1h2l5 2 3 2-1 3-1 2-6-2-6-4z" fill="#262146"/>
<path transform="translate(280,387)" d="m0 0h1l1 10 1 4 3 1 3 7h-4l-5-3z" fill="#7D72B8"/>
<path transform="translate(564,681)" d="m0 0m-1 1m-3 1h3v3l-5 3h-2v2l-5 2-6-1 4-3z" fill="#952CAC"/>
<path transform="translate(102,257)" d="m0 0h2v36h-1l-1-9h-1v-23z" fill="#FE02B7"/>
<path transform="translate(712,590)" d="m0 0 4 1 1 3-15 9-1-3 7-6z" fill="#26356B"/>
<path transform="translate(242,515)" d="m0 0 4 1 14 8 8 5v3l-5-2-10-6-3-3-8-5z" fill="#766CB2"/>
<path transform="translate(507,515)" d="m0 0 2 1-1 3-15 9-2-1-1-2z" fill="#8E83C8"/>
<path transform="translate(540,496)" d="m0 0h6l-3 3h-2v2l-6 3-2 2-7-1 5-4z" fill="#9A90D0"/>
<path transform="translate(457,806)" d="m0 0h3v2l-22 12-3-1 4-3 9-5z" fill="#4A2C7C"/>
<path transform="translate(148,611)" d="m0 0 9 3v2l6 2 9 6h5l1 5-9-4-11-7-10-5z" fill="#E119B1"/>
<path transform="translate(241,517)" d="m0 0 12 6 10 6 3 3-9-2-11-7-5-4z" fill="#8778C2"/>
<path transform="translate(557,322)" d="m0 0 11 1 6 3v2l3 1-2 1-12-5-9 1-8 1 3-3z" fill="#2F3260"/>
<path transform="translate(210,644)" d="m0 0 5 2 12 6 7 4v1h-6l-14-8-4-3z" fill="#9B0DA0"/>
<path transform="translate(595,197)" d="m0 0 7 2 5 4 4 2-2 4-10-6-4-4z" fill="#232B55"/>
<path transform="translate(471,171)" d="m0 0 3 1-1 2h-4v2l-14 8-4-2z" fill="#BFB3E7"/>
<path transform="translate(527,702)" d="m0 0 2 1v3l-14 7-2-1-1-2z" fill="#982CAD"/>
<path transform="translate(647,633)" d="m0 0h3l-1 5-9 5h-5l2-4 7-4z" fill="#951EA8"/>
<path transform="translate(734,584)" d="m0 0h2l-2 4-11 7h-5l1-3z" fill="#9817A7"/>
<path transform="translate(108,255)" d="m0 0m-3 1 3 1v10l5-2v2l-3 2-3 10h-1z" fill="#1C142F"/>
<path transform="translate(659,237)" d="m0 0 7 1 6 5 1 4-6-1-2-1v-2h-2l-4-4z" fill="#232B55"/>
<path transform="translate(490,787)" d="m0 0 4 1-20 12h-2l2-4 11-6z" fill="#4B2E7D"/>
<path transform="translate(472,246)" d="m0 0h5l9 6-1 2-5-1h-6z" fill="#1C112B"/>
<path transform="translate(356,136)" d="m0 0 2 1-1 2-5 3-5 4h-4v2l-5 3-5 2 2-5 9-4 2-2 5-2z" fill="#293366"/>
<path transform="translate(327,711)" d="m0 0 5 2 8 2 6 4v2l-7-1-11-6z" fill="#641089"/>
<path transform="translate(621,648)" d="m0 0 2 1-5 3-2 4-10 6-2-1 3-2-2-2z" fill="#9A3CB2"/>
<path transform="translate(472,373)" d="m0 0 4 1v3l-6 3-4 4h-3v-4l6-4z" fill="#283367"/>
<path transform="translate(540,306)" d="m0 0h2v4l4 2-7 3-2-1v-2l-4 1 2-4z" fill="#1D1633"/>
<path transform="translate(114,591)" d="m0 0 7 3 10 6 7 3 3 3-3 1v-2l-5-1-16-10-3-1z" fill="#D914AD"/>
<path transform="translate(395,814)" d="m0 0 8 4 6 2 3 6-5-2-12-7z" fill="#4B2879"/>
<path transform="translate(423,286)" d="m0 0h3v2h-2v2l-11 6-4-1 4-4z" fill="#232B55"/>
<path transform="translate(406,70)" d="m0 0 9 2v3l-5 3-3-1-3-2v-3h2z" fill="#4E7BDC"/>
<path transform="translate(229,722)" d="m0 0 9 4v2l7 2 3 2 5 1-1 3-6-2-18-10z" fill="#C30D90"/>
<path transform="translate(780,529)" d="m0 0h2v8h2l1 7-2 1-3-2-1-3 2-4-2-1v-5z" fill="#850093"/>
<path transform="translate(579,306)" d="m0 0 6 2 2 1v4h-7l-3-3z" fill="#1C102A"/>
<path transform="translate(376,664)" d="m0 0v3l-5 5-5 4h-3v-2l-2-1 14-8z" fill="#25153B"/>
<path transform="translate(492,334)" d="m0 0 7 1v4l-5 3-2-1-1-6z" fill="#1D1430"/>
<path transform="translate(603,658)" d="m0 0h5l-5 6-11 3 1-3z" fill="#8F18A4"/>
<path transform="translate(455,274)" d="m0 0h2l1 3-8 3-1 2h-3l-1 3-1-2-2-1 6-5z" fill="#283468"/>
<path transform="translate(695,606)" d="m0 0v3l-2 4-9 3-1-3z" fill="#9531AF"/>
<path transform="translate(424,299)" d="m0 0 3 1-1 2-16 8-2-2 5-1v-2z" fill="#233A75"/>
<path transform="translate(695,227)" d="m0 0h6v6h4v3l-4-1-5-3v-3l-2-1z" fill="#F51EB9"/>
<path transform="translate(658,627)" d="m0 0h7l-3 3-10 5h-2l-1-3 8-4z" fill="#A42DB1"/>
<path transform="translate(105,653)" d="m0 0 5 1 17 10-1 2-20-11z" fill="#C00F91"/>
<path transform="translate(450,440)" d="m0 0 4 2-11 7-2-1v-3z" fill="#8F84C9"/>
<path transform="translate(490,335)" d="m0 0 3 4-1 3h-8l-1-3z" fill="#1E1F3E"/>
<path transform="translate(586,329)" d="m0 0 3 1 3 10-4-2-5-7z" fill="#232B55"/>
<path transform="translate(470,349)" d="m0 0 2 1 1 3-6 5h-2v-6z" fill="#1D1430"/>
<path transform="translate(360,305)" d="m0 0h5l-2 4 2 1-2 2-7-1v-3z" fill="#1F1837"/>
<path transform="translate(763,205)" d="m0 0 6 2 13 8-1 2-15-8-3-2z" fill="#F540C7"/>
<path transform="translate(498,412)" d="m0 0 2 1-1 3-12 7-2-1v-2l12-7z" fill="#AA9FDB"/>
<path transform="translate(376,329)" d="m0 0 2 1-1 3-7 4-7 2 1-3z" fill="#A197D4"/>
<path transform="translate(528,313)" d="m0 0h3v7l-5 1v2l-3 1-2-4 7-2-2-2z" fill="#1D1430"/>
<path transform="translate(493,257)" d="m0 0 5 1v2l-12 7-3-1 5-4 4-1z" fill="#212448"/>
<path transform="translate(382,807)" d="m0 0 10 4 3 3-1 3-12-7z" fill="#4D2A7B"/>
<path transform="translate(446,256)" d="m0 0h5l-1 2h-2v5l-5 2v-3l-2-1z" fill="#1D1430"/>
<path transform="translate(317,693)" d="m0 0 7 1-3 3-6 3-2-1 1-5z" fill="#E40085"/>
<path transform="translate(278,646)" d="m0 0 2 1-1 2-5 2h2v2l-9 3 1-4z" fill="#E020B5"/>
<path transform="translate(294,635)" d="m0 0h2v2l-7 6-3 2-7 1 1-3 4-1 9-6z" fill="#A80C9D"/>
<path transform="translate(489,249)" d="m0 0 4 1 2 1v4l2 1v2l-5-2-5-4z" fill="#B7ABE2"/>
<path transform="translate(197,640)" d="m0 0 7 1 7 4 3 4-5-1-12-7z" fill="#F10AB1"/>
<path transform="translate(188,631)" d="m0 0 7 3 15 9-3 1-10-6-9-5z" fill="#870C9B"/>
<path transform="translate(293,545)" d="m0 0 5 2 3 2-1 4-4 2v-5l-5-3z" fill="#7D73B8"/>
<path transform="translate(181,695)" d="m0 0 5 2 9 5v2h2l-1 2-15-9z" fill="#D31092"/>
<path transform="translate(467,430)" d="m0 0 2 1 1 2-9 5-4-2z" fill="#978CCD"/>
<path transform="translate(301,372)" d="m0 0 2 1-1 3-11 5 1-4z" fill="#867AC0"/>
<path transform="translate(341,781)" d="m0 0 4 5 3 3-6-1-7-4 4-2 2 1z" fill="#4C2779"/>
<path transform="translate(520,771)" d="m0 0 3 1-14 8h-2v-2l5-3h2v-2z" fill="#483682"/>
<path transform="translate(224,312)" d="m0 0 2 1-1 3-9 5-2-1 1-3z" fill="#8479BF"/>
<path transform="translate(321,256)" d="m0 0 2 1-1 3-9 5-2-1v-2z" fill="#A79CD9"/>
<path transform="translate(164,218)" d="m0 0 3 1-2 1-1 3-5 3h-5l5-5z" fill="#810D97"/>
<path transform="translate(453,743)" d="m0 0 1 4-6 4h-3l2-5z" fill="#9A1FAA"/>
<path transform="translate(142,674)" d="m0 0 5 1 4 2v2l5 1 2 2-3 1-13-8z" fill="#D00F91"/>
<path transform="translate(431,629)" d="m0 0h2l-1 3-8 5-4-1 6-5z" fill="#897AC4"/>
<path transform="translate(318,697)" d="m0 0 2 1-3 3 3 3-7 1-3-3z" fill="#2C1442"/>
<path transform="translate(673,619)" d="m0 0m-1 1m-2 1h2v2l-5 4-6 1-1-2z" fill="#9121A8"/>
<path transform="translate(105,583)" d="m0 0 4 1 5 3-1 3-8-3z" fill="#9E0699"/>
<path transform="translate(489,526)" d="m0 0 3 1-4 4-6 2-2-2z" fill="#9489CC"/>
<path transform="translate(785,236)" d="m0 0 3 4-1 13h-2z" fill="#EE10B1"/>
<path transform="translate(342,720)" d="m0 0h6l9 5-1 2-5-2-9-3z" fill="#7A139D"/>
<path transform="translate(269,650)" d="m0 0 2 1-3 2-1 3-4 2h-5l4-4z" fill="#9D0B96"/>
<path transform="translate(81,638)" d="m0 0 8 4 6 4-1 2-13-7z" fill="#BE0D8E"/>
<path transform="translate(584,470)" d="m0 0 2 1-1 3-7 4-3-1 4-4z" fill="#A197D4"/>
<path transform="translate(526,314)" d="m0 0 2 2v3l-9 2v-3z" fill="#1D1D3D"/>
<path transform="translate(135,166)" d="m0 0 2 1-4 5h-3v2l-3-1-1-2z" fill="#8028A8"/>
<path transform="translate(536,691)" d="m0 0 8 1-5 4-3 1-1-4z" fill="#26356B"/>
<path transform="translate(142,606)" d="m0 0 6 1 4 4-9-1-2-3z" fill="#C019AE"/>
<path transform="translate(598,664)" d="m0 0 2 1-9 5-5-1 5-4 3 1z" fill="#AB37B6"/>
<path transform="translate(265,656)" d="m0 0h2v2l-8 4-2 2-3-1h2v-3h2v-2z" fill="#FA19BA"/>
<path transform="translate(564,482)" d="m0 0 4 2-6 4-4-1 4-4z" fill="#A197D4"/>
<path transform="translate(101,401)" d="m0 0 2 3v11l-2 3-1-5z" fill="#FF009C"/>
<path transform="translate(594,316)" d="m0 0 7 1 1 2-1 2-6-1z" fill="#1C1029"/>
<path transform="translate(588,199)" d="m0 0 5 1 4 4 4 2-2 2-4-2-4-4z" fill="#283468"/>
<path transform="translate(341,611)" d="m0 0 2 1-11 7-4 1v-2z" fill="#826ABA"/>
<path transform="translate(482,421)" d="m0 0 4 1-3 4-6 2 2-5z" fill="#A398D7"/>
<path transform="translate(332,323)" d="m0 0 3 1 2 4-6 1-1-4z" fill="#1D1430"/>
<path transform="translate(239,663)" d="m0 0 8 1h7l-3 3-8-1z" fill="#EF1AB7"/>
<path transform="translate(277,536)" d="m0 0 4 1 6 3-1 3-5-2-4-3z" fill="#7B70B7"/>
<path transform="translate(500,478)" d="m0 0 1 2 6-1-1 4-6 1z" fill="#A59AD7"/>
<path transform="translate(652,277)" d="m0 0 5 1 4 4-3 1-7-4z" fill="#C2B7E8"/>
<path transform="translate(620,258)" d="m0 0 5 2 6 3-3 2-8-4z" fill="#D6CBF2"/>
<path transform="translate(693,257)" d="m0 0 5 1 4 2v2h-6z" fill="#232B55"/>
<path transform="translate(77,199)" d="m0 0 2 1-3 4-5 1-6 1 4-3z" fill="#832DA9"/>
<path transform="translate(175,622)" d="m0 0 7 1 4 4v2l-4-1v-2l-5-1z" fill="#1D2448"/>
<path transform="translate(148,610)" d="m0 0h5l9 5v1h-5v-2l-6-1z" fill="#940AA0"/>
<path transform="translate(255,523)" d="m0 0 5 1 8 5v3l-5-2-4-4z" fill="#7B6EB6"/>
<path transform="translate(786,335)" d="m0 0h1l1 10-2 4-2-6z" fill="#CB35B8"/>
<path transform="translate(471,171)" d="m0 0 3 1-1 2h-4v2l-4 2v-4z" fill="#D1C6F0"/>
</svg>
